<svg width="155" height="52" viewBox="0 0 155 52" fill="none" xmlns="http://www.w3.org/2000/svg">
<path d="M84.1953 41.7266C83.0859 42.5078 81.6641 43.125 79.9297 43.5781C78.1953 44.0156 76.0703 44.2344 73.5547 44.2344C71.0547 44.2344 68.5312 44.0859 65.9844 43.7891V39.2422C68.2656 39.7578 70.5625 40.0156 72.875 40.0156C75.1875 40.0156 76.9219 39.8906 78.0781 39.6406C79.2344 39.375 80.1641 39.0312 80.8672 38.6094C82.1641 37.8281 82.8125 36.8125 82.8125 35.5625C82.8125 34.5938 82.5625 33.8438 82.0625 33.3125C81.2656 32.4844 80.1172 31.7266 78.6172 31.0391L72.6172 28.2969C70.5547 27.3281 69.0938 26.4297 68.2344 25.6016C66.3906 23.8203 65.4688 21.7578 65.4688 19.4141C65.4688 17.0078 66.5156 15.0625 68.6094 13.5781C70.9062 11.9531 74.1719 11.1406 78.4062 11.1406C81.1406 11.1406 83.6406 11.25 85.9062 11.4688V15.9453C83.9844 15.5078 81.8359 15.2891 79.4609 15.2891C77.1016 15.2891 75.3828 15.4141 74.3047 15.6641C73.2422 15.8984 72.4062 16.2031 71.7969 16.5781C70.6875 17.2656 70.1328 18.1719 70.1328 19.2969C70.1328 20.3906 70.4844 21.2969 71.1875 22.0156C71.8125 22.625 72.9531 23.3281 74.6094 24.125L80.7734 27.0547C82.8203 28.0234 84.25 28.9375 85.0625 29.7969C85.8906 30.6562 86.5 31.5234 86.8906 32.3984C87.2812 33.2578 87.4766 34.2969 87.4766 35.5156C87.4766 36.7188 87.2109 37.8594 86.6797 38.9375C86.1484 40 85.3203 40.9297 84.1953 41.7266ZM104.422 11.375H107.633L121.391 44H116.516L113.211 35.7969H98.7266L95.4453 44H90.6641L104.422 11.375ZM111.711 32.0469L105.992 17.75L100.25 32.0469H111.711ZM125.445 11.375H128.445L140.07 24.7344L151.648 11.375H154.648V44H149.961V19.1562L148.578 21.0312L140.07 30.9453L131.562 21.0547L130.133 19.1797V44H125.445V11.375Z" fill="black"/>
<line x1="3" y1="3" x2="3" y2="49" stroke="#751FFF" stroke-width="6" stroke-linecap="square"/>
</svg>
